<mxfile host="app.diagrams.net" agent="Mozilla/5.0 (Windows NT 10.0; Win64; x64) AppleWebKit/537.36 (KHTML, like Gecko) Chrome/138.0.0.0 Safari/537.36" version="28.0.6">
  <diagram name="PÃ¡gina-1" id="BpWnCrh8aEGcQ6xP7Cq1">
    <mxGraphModel grid="1" page="1" gridSize="10" guides="1" tooltips="1" connect="1" arrows="1" fold="1" pageScale="1" pageWidth="827" pageHeight="1169" math="0" shadow="0">
      <root>
        <mxCell id="0" />
        <mxCell id="1" parent="0" />
        <mxCell id="gQ4YZ5-QERsagssPoT6o-1" value="" style="verticalLabelPosition=bottom;verticalAlign=top;html=1;shape=mxgraph.basic.rect;fillColor2=none;strokeWidth=1;size=20;indent=5;" vertex="1" parent="1">
          <mxGeometry x="310" y="200" width="730" height="670" as="geometry" />
        </mxCell>
        <mxCell id="gQ4YZ5-QERsagssPoT6o-2" value="&lt;span style=&quot;font-size: 12px; font-weight: 400; text-wrap-mode: wrap;&quot;&gt;&amp;lt;&amp;lt;structured&amp;gt;&amp;gt;&lt;/span&gt;&lt;div&gt;Administrador&lt;/div&gt;" style="text;strokeColor=none;fillColor=none;html=1;fontSize=24;fontStyle=1;verticalAlign=middle;align=center;" vertex="1" parent="1">
          <mxGeometry x="580" y="210" width="170" height="50" as="geometry" />
        </mxCell>
        <mxCell id="gQ4YZ5-QERsagssPoT6o-3" value="&lt;div&gt;&amp;lt;&amp;lt;part&amp;gt;&amp;gt;&lt;/div&gt;&amp;nbsp;EventosGestionados : Evento&amp;nbsp; &amp;nbsp;" style="html=1;whiteSpace=wrap;" vertex="1" parent="1">
          <mxGeometry x="605" y="514.5" width="120" height="75" as="geometry" />
        </mxCell>
        <mxCell id="gQ4YZ5-QERsagssPoT6o-4" value="&amp;lt;&amp;lt;part&amp;gt;&amp;gt;&lt;div&gt;&amp;nbsp;NotificacionesEnviadas : Notificacion&lt;/div&gt;" style="html=1;whiteSpace=wrap;" vertex="1" parent="1">
          <mxGeometry x="415" y="660" width="130" height="60" as="geometry" />
        </mxCell>
        <mxCell id="gQ4YZ5-QERsagssPoT6o-5" value="&amp;lt;&amp;lt;part&amp;gt;&amp;gt;&lt;div&gt;EncuestasCreadas: Encuesta&lt;/div&gt;" style="html=1;whiteSpace=wrap;" vertex="1" parent="1">
          <mxGeometry x="860" y="527" width="130" height="60" as="geometry" />
        </mxCell>
        <mxCell id="gQ4YZ5-QERsagssPoT6o-6" value="&amp;lt;&amp;lt;part&amp;gt;&amp;gt;&lt;br&gt;SolicitudesGestionadas : Solicitud&amp;nbsp;" style="html=1;whiteSpace=wrap;" vertex="1" parent="1">
          <mxGeometry x="425" y="350" width="110" height="60" as="geometry" />
        </mxCell>
        <mxCell id="gQ4YZ5-QERsagssPoT6o-7" value="" style="text;strokeColor=none;fillColor=none;align=left;verticalAlign=middle;spacingTop=-1;spacingLeft=4;spacingRight=4;rotatable=0;labelPosition=right;points=[];portConstraint=eastwest;" vertex="1" parent="1">
          <mxGeometry x="1160" y="517.5" width="20" height="14" as="geometry" />
        </mxCell>
        <mxCell id="gQ4YZ5-QERsagssPoT6o-10" value="" style="rounded=0;whiteSpace=wrap;html=1;" vertex="1" parent="1">
          <mxGeometry x="840" y="545" width="30" height="30" as="geometry" />
        </mxCell>
        <mxCell id="gQ4YZ5-QERsagssPoT6o-11" value="" style="rounded=0;whiteSpace=wrap;html=1;" vertex="1" parent="1">
          <mxGeometry x="515" y="390" width="30" height="30" as="geometry" />
        </mxCell>
        <mxCell id="gQ4YZ5-QERsagssPoT6o-12" value="&amp;lt;&amp;lt;part&amp;gt;&amp;gt;&lt;div&gt;GaleriaAdmin: Galeria&lt;/div&gt;" style="html=1;whiteSpace=wrap;" vertex="1" parent="1">
          <mxGeometry x="827" y="660" width="130" height="60" as="geometry" />
        </mxCell>
        <mxCell id="gQ4YZ5-QERsagssPoT6o-13" value="" style="rounded=0;whiteSpace=wrap;html=1;" vertex="1" parent="1">
          <mxGeometry x="540" y="675" width="30" height="30" as="geometry" />
        </mxCell>
        <mxCell id="gQ4YZ5-QERsagssPoT6o-14" value="&amp;lt;&amp;lt;port&amp;gt;&amp;gt; interfazContrato : Contrato&amp;nbsp;&amp;nbsp;" style="html=1;whiteSpace=wrap;" vertex="1" parent="1">
          <mxGeometry x="1180" y="485" width="130" height="65" as="geometry" />
        </mxCell>
        <mxCell id="gQ4YZ5-QERsagssPoT6o-16" value="&amp;lt;&amp;lt;part&amp;gt;&amp;gt;&lt;br&gt;RecursosDisponibles&lt;br&gt;:Recurso&lt;br&gt;&lt;span style=&quot;text-wrap-mode: nowrap; color: rgba(0, 0, 0, 0); font-family: monospace; font-size: 0px; text-align: start;&quot;&gt;vv3CmxGraphModel%3E%3Croot%3E%3CmxCell%20id%3D%220%22%2F%3E%3CmxCell%20id%3D%221%22%20parent%3D%220%22%2F%3E%3CmxCell%20id%3D%222%22%20value%3D%22Contrato%22%20style%3D%22html%3D1%3BwhiteSpace%3Dwrap%3B%22%20vertex%3D%221%22%20parent%3D%221%22%3E%3CmxGeometry%20x%3D%22130%22%20y%3D%22130%22%20width%3D%22110%22%20height%3D%2250%22%20as%3D%22geometry%22%2F%3E%3C%2FmxCell%3E%3C%2Froot%3E%3C%2FmxGraphModel%3&lt;/span&gt;" style="html=1;whiteSpace=wrap;" vertex="1" parent="1">
          <mxGeometry x="832" y="370" width="120" height="60" as="geometry" />
        </mxCell>
        <mxCell id="gQ4YZ5-QERsagssPoT6o-17" value="&amp;lt;&amp;lt;part&amp;gt;&amp;gt;&lt;div&gt;ComentariosVisibles: Comentario&lt;br&gt;&lt;span style=&quot;color: rgba(0, 0, 0, 0); font-family: monospace; font-size: 0px; text-align: start; text-wrap-mode: nowrap;&quot;&gt;encuestasCreadas : EncuestaencuestasCreadas : Encuesta%3CmxGraphModel%3E%3Croot%3E%3CmxCell%20id%3D%220%22%2F%3E%3CmxCell%20id%3D%221%22%20parent%3D%220%22%2F%3E%3CmxCell%20id%3D%222%22%20value%3D%22Contrato%22%20style%3D%22html%3D1%3BwhiteSpace%3Dwrap%3B%22%20vertex%3D%221%22%20parent%3D%221%22%3E%3CmxGeometry%20x%3D%22130%22%20y%3D%22130%22%20width%3D%22110%22%20height%3D%2250%22%20as%3D%22geometry%22%2F%3E%3C%2FmxCell%3E%3C%2Froot%3E%3C%2FmxGraphModel%3&lt;/span&gt;&lt;/div&gt;" style="html=1;whiteSpace=wrap;" vertex="1" parent="1">
          <mxGeometry x="640" y="800" width="127" height="60" as="geometry" />
        </mxCell>
        <mxCell id="gQ4YZ5-QERsagssPoT6o-22" value="" style="rounded=0;whiteSpace=wrap;html=1;" vertex="1" parent="1">
          <mxGeometry x="1160" y="502.5" width="30" height="30" as="geometry" />
        </mxCell>
        <mxCell id="gQ4YZ5-QERsagssPoT6o-21" value="" style="rounded=0;whiteSpace=wrap;html=1;" vertex="1" parent="1">
          <mxGeometry x="1400" y="507.5" width="30" height="30" as="geometry" />
        </mxCell>
        <mxCell id="gQ4YZ5-QERsagssPoT6o-26" value="" style="rounded=0;whiteSpace=wrap;html=1;" vertex="1" parent="1">
          <mxGeometry x="1300" y="507.5" width="30" height="30" as="geometry" />
        </mxCell>
        <mxCell id="gQ4YZ5-QERsagssPoT6o-28" value="" style="rounded=0;whiteSpace=wrap;html=1;" vertex="1" parent="1">
          <mxGeometry x="590" y="575" width="30" height="30" as="geometry" />
        </mxCell>
        <mxCell id="4w97whk-D0vGGnP6iZqv-4" style="edgeStyle=none;curved=1;rounded=0;orthogonalLoop=1;jettySize=auto;html=1;entryX=1;entryY=0;entryDx=0;entryDy=0;fontSize=12;startSize=8;endSize=8;endArrow=none;endFill=0;" edge="1" parent="1" source="gQ4YZ5-QERsagssPoT6o-30" target="4w97whk-D0vGGnP6iZqv-3">
          <mxGeometry relative="1" as="geometry" />
        </mxCell>
        <mxCell id="gQ4YZ5-QERsagssPoT6o-30" value="" style="rounded=0;whiteSpace=wrap;html=1;" vertex="1" parent="1">
          <mxGeometry x="820" y="410" width="30" height="30" as="geometry" />
        </mxCell>
        <mxCell id="4w97whk-D0vGGnP6iZqv-6" style="edgeStyle=none;curved=1;rounded=0;orthogonalLoop=1;jettySize=auto;html=1;entryX=0;entryY=1;entryDx=0;entryDy=0;fontSize=12;startSize=8;endSize=8;endArrow=none;endFill=0;" edge="1" parent="1" source="gQ4YZ5-QERsagssPoT6o-33" target="4w97whk-D0vGGnP6iZqv-5">
          <mxGeometry relative="1" as="geometry" />
        </mxCell>
        <mxCell id="gQ4YZ5-QERsagssPoT6o-33" value="" style="rounded=0;whiteSpace=wrap;html=1;" vertex="1" parent="1">
          <mxGeometry x="750" y="790" width="30" height="30" as="geometry" />
        </mxCell>
        <mxCell id="gQ4YZ5-QERsagssPoT6o-34" value="" style="rounded=0;whiteSpace=wrap;html=1;" vertex="1" parent="1">
          <mxGeometry x="1040" y="502.5" width="30" height="30" as="geometry" />
        </mxCell>
        <mxCell id="gQ4YZ5-QERsagssPoT6o-36" value="" style="rounded=0;whiteSpace=wrap;html=1;" vertex="1" parent="1">
          <mxGeometry x="600" y="497" width="30" height="30" as="geometry" />
        </mxCell>
        <mxCell id="gQ4YZ5-QERsagssPoT6o-42" value="" style="rounded=0;whiteSpace=wrap;html=1;" vertex="1" parent="1">
          <mxGeometry x="800" y="682.5" width="30" height="30" as="geometry" />
        </mxCell>
        <mxCell id="gQ4YZ5-QERsagssPoT6o-70" value="&amp;lt;&amp;lt;note&amp;gt;&amp;gt;&lt;div&gt;&amp;nbsp;CargarContrato&amp;nbsp;&lt;/div&gt;&lt;div&gt;EnviarContrato&lt;/div&gt;&lt;div&gt;DescargarContrato&lt;br&gt;Eliminar Contrato&amp;nbsp;&lt;/div&gt;" style="html=1;whiteSpace=wrap;" vertex="1" parent="1">
          <mxGeometry x="1420" y="485" width="130" height="80" as="geometry" />
        </mxCell>
        <mxCell id="gQ4YZ5-QERsagssPoT6o-71" value="&amp;lt;&amp;lt;port&amp;gt;&amp;gt;&lt;div&gt;interfazUsuarios : IUsuario&lt;/div&gt;" style="html=1;whiteSpace=wrap;" vertex="1" parent="1">
          <mxGeometry x="1180" y="682.5" width="130" height="65" as="geometry" />
        </mxCell>
        <mxCell id="gQ4YZ5-QERsagssPoT6o-72" value="" style="rounded=0;whiteSpace=wrap;html=1;" vertex="1" parent="1">
          <mxGeometry x="1160" y="700" width="30" height="30" as="geometry" />
        </mxCell>
        <mxCell id="gQ4YZ5-QERsagssPoT6o-73" value="" style="rounded=0;whiteSpace=wrap;html=1;" vertex="1" parent="1">
          <mxGeometry x="1300" y="697.5" width="30" height="30" as="geometry" />
        </mxCell>
        <mxCell id="gQ4YZ5-QERsagssPoT6o-74" value="&amp;lt;&amp;lt;note&amp;gt;&amp;gt;&lt;div&gt;&amp;nbsp;Crear Usuario&lt;/div&gt;&lt;div&gt;Editar Usuario&lt;/div&gt;&lt;div&gt;Eliminar Usuario&lt;/div&gt;" style="html=1;whiteSpace=wrap;" vertex="1" parent="1">
          <mxGeometry x="1440" y="676.25" width="130" height="77.5" as="geometry" />
        </mxCell>
        <mxCell id="gQ4YZ5-QERsagssPoT6o-76" value="" style="rounded=0;whiteSpace=wrap;html=1;" vertex="1" parent="1">
          <mxGeometry x="1410" y="700" width="30" height="30" as="geometry" />
        </mxCell>
        <mxCell id="gQ4YZ5-QERsagssPoT6o-77" value="" style="rounded=0;whiteSpace=wrap;html=1;" vertex="1" parent="1">
          <mxGeometry x="1040" y="697.5" width="30" height="30" as="geometry" />
        </mxCell>
        <mxCell id="gQ4YZ5-QERsagssPoT6o-78" value="" style="endArrow=none;html=1;rounded=0;exitX=1;exitY=0.5;exitDx=0;exitDy=0;entryX=0;entryY=0.5;entryDx=0;entryDy=0;" edge="1" parent="1" source="gQ4YZ5-QERsagssPoT6o-77" target="gQ4YZ5-QERsagssPoT6o-72">
          <mxGeometry width="50" height="50" relative="1" as="geometry">
            <mxPoint x="1080" y="790" as="sourcePoint" />
            <mxPoint x="1130" y="740" as="targetPoint" />
          </mxGeometry>
        </mxCell>
        <mxCell id="gQ4YZ5-QERsagssPoT6o-79" value="" style="endArrow=none;html=1;rounded=0;exitX=1;exitY=0.5;exitDx=0;exitDy=0;entryX=0;entryY=0.5;entryDx=0;entryDy=0;" edge="1" parent="1" source="gQ4YZ5-QERsagssPoT6o-34" target="gQ4YZ5-QERsagssPoT6o-22">
          <mxGeometry width="50" height="50" relative="1" as="geometry">
            <mxPoint x="1090" y="550" as="sourcePoint" />
            <mxPoint x="1190" y="530" as="targetPoint" />
          </mxGeometry>
        </mxCell>
        <mxCell id="gQ4YZ5-QERsagssPoT6o-80" value="" style="endArrow=none;html=1;rounded=0;exitX=1;exitY=0.5;exitDx=0;exitDy=0;entryX=0;entryY=0.5;entryDx=0;entryDy=0;" edge="1" parent="1" source="gQ4YZ5-QERsagssPoT6o-26" target="gQ4YZ5-QERsagssPoT6o-21">
          <mxGeometry width="50" height="50" relative="1" as="geometry">
            <mxPoint x="1310" y="590" as="sourcePoint" />
            <mxPoint x="1410" y="570" as="targetPoint" />
          </mxGeometry>
        </mxCell>
        <mxCell id="gQ4YZ5-QERsagssPoT6o-81" value="" style="endArrow=none;html=1;rounded=0;exitX=1;exitY=0.5;exitDx=0;exitDy=0;entryX=0;entryY=0.5;entryDx=0;entryDy=0;" edge="1" parent="1" source="gQ4YZ5-QERsagssPoT6o-73" target="gQ4YZ5-QERsagssPoT6o-76">
          <mxGeometry width="50" height="50" relative="1" as="geometry">
            <mxPoint x="1340" y="760" as="sourcePoint" />
            <mxPoint x="1440" y="740" as="targetPoint" />
          </mxGeometry>
        </mxCell>
        <mxCell id="gQ4YZ5-QERsagssPoT6o-83" value="" style="endArrow=none;html=1;rounded=0;entryX=0.5;entryY=0;entryDx=0;entryDy=0;exitX=1;exitY=0.5;exitDx=0;exitDy=0;" edge="1" parent="1" source="gQ4YZ5-QERsagssPoT6o-11" target="gQ4YZ5-QERsagssPoT6o-36">
          <mxGeometry width="50" height="50" relative="1" as="geometry">
            <mxPoint x="750" y="490" as="sourcePoint" />
            <mxPoint x="850" y="533" as="targetPoint" />
          </mxGeometry>
        </mxCell>
        <mxCell id="4w97whk-D0vGGnP6iZqv-3" value="" style="rounded=0;whiteSpace=wrap;html=1;" vertex="1" parent="1">
          <mxGeometry x="710" y="501.5" width="30" height="30" as="geometry" />
        </mxCell>
        <mxCell id="gQ4YZ5-QERsagssPoT6o-86" value="" style="rounded=0;whiteSpace=wrap;html=1;" vertex="1" parent="1">
          <mxGeometry x="720" y="575" width="30" height="30" as="geometry" />
        </mxCell>
        <mxCell id="gQ4YZ5-QERsagssPoT6o-87" value="" style="endArrow=none;html=1;rounded=0;exitX=1;exitY=0.5;exitDx=0;exitDy=0;entryX=0;entryY=0.25;entryDx=0;entryDy=0;" edge="1" parent="1" source="gQ4YZ5-QERsagssPoT6o-86" target="gQ4YZ5-QERsagssPoT6o-10">
          <mxGeometry width="50" height="50" relative="1" as="geometry">
            <mxPoint x="730" y="700" as="sourcePoint" />
            <mxPoint x="780" y="650" as="targetPoint" />
          </mxGeometry>
        </mxCell>
        <mxCell id="gQ4YZ5-QERsagssPoT6o-88" value="" style="rounded=0;whiteSpace=wrap;html=1;" vertex="1" parent="1">
          <mxGeometry x="660" y="575" width="30" height="30" as="geometry" />
        </mxCell>
        <mxCell id="gQ4YZ5-QERsagssPoT6o-89" value="" style="endArrow=none;html=1;rounded=0;exitX=0.75;exitY=1;exitDx=0;exitDy=0;entryX=0.25;entryY=0;entryDx=0;entryDy=0;" edge="1" parent="1" source="gQ4YZ5-QERsagssPoT6o-88" target="gQ4YZ5-QERsagssPoT6o-42">
          <mxGeometry width="50" height="50" relative="1" as="geometry">
            <mxPoint x="740" y="660" as="sourcePoint" />
            <mxPoint x="800" y="673" as="targetPoint" />
          </mxGeometry>
        </mxCell>
        <mxCell id="gQ4YZ5-QERsagssPoT6o-91" value="" style="endArrow=none;html=1;rounded=0;exitX=0.5;exitY=1;exitDx=0;exitDy=0;entryX=1;entryY=0;entryDx=0;entryDy=0;" edge="1" parent="1" source="gQ4YZ5-QERsagssPoT6o-28" target="gQ4YZ5-QERsagssPoT6o-13">
          <mxGeometry width="50" height="50" relative="1" as="geometry">
            <mxPoint x="590" y="660" as="sourcePoint" />
            <mxPoint x="650" y="673" as="targetPoint" />
          </mxGeometry>
        </mxCell>
        <mxCell id="4w97whk-D0vGGnP6iZqv-5" value="" style="rounded=0;whiteSpace=wrap;html=1;" vertex="1" parent="1">
          <mxGeometry x="875.5" y="717.5" width="30" height="30" as="geometry" />
        </mxCell>
        <mxCell id="4w97whk-D0vGGnP6iZqv-8" style="edgeStyle=none;curved=1;rounded=0;orthogonalLoop=1;jettySize=auto;html=1;entryX=0.5;entryY=0;entryDx=0;entryDy=0;fontSize=12;startSize=8;endSize=8;endArrow=none;endFill=0;" edge="1" parent="1" source="4w97whk-D0vGGnP6iZqv-7" target="gQ4YZ5-QERsagssPoT6o-92">
          <mxGeometry relative="1" as="geometry" />
        </mxCell>
        <mxCell id="4w97whk-D0vGGnP6iZqv-7" value="" style="rounded=0;whiteSpace=wrap;html=1;" vertex="1" parent="1">
          <mxGeometry x="465" y="400" width="30" height="30" as="geometry" />
        </mxCell>
        <mxCell id="gQ4YZ5-QERsagssPoT6o-92" value="" style="rounded=0;whiteSpace=wrap;html=1;" vertex="1" parent="1">
          <mxGeometry x="465" y="635" width="30" height="30" as="geometry" />
        </mxCell>
        <mxCell id="gQ4YZ5-QERsagssPoT6o-93" value="0.*" style="text;html=1;align=center;verticalAlign=middle;whiteSpace=wrap;rounded=0;" vertex="1" parent="1">
          <mxGeometry x="535" y="390" width="60" height="30" as="geometry" />
        </mxCell>
        <mxCell id="gQ4YZ5-QERsagssPoT6o-94" value="0.*" style="text;html=1;align=center;verticalAlign=middle;whiteSpace=wrap;rounded=0;" vertex="1" parent="1">
          <mxGeometry x="600" y="472.5" width="60" height="30" as="geometry" />
        </mxCell>
        <mxCell id="gQ4YZ5-QERsagssPoT6o-95" value="0.*" style="text;html=1;align=center;verticalAlign=middle;whiteSpace=wrap;rounded=0;" vertex="1" parent="1">
          <mxGeometry x="465" y="430" width="60" height="30" as="geometry" />
        </mxCell>
        <mxCell id="gQ4YZ5-QERsagssPoT6o-96" value="0.*" style="text;html=1;align=center;verticalAlign=middle;whiteSpace=wrap;rounded=0;" vertex="1" parent="1">
          <mxGeometry x="465" y="610" width="60" height="30" as="geometry" />
        </mxCell>
        <mxCell id="gQ4YZ5-QERsagssPoT6o-97" value="0.*" style="text;html=1;align=center;verticalAlign=middle;whiteSpace=wrap;rounded=0;" vertex="1" parent="1">
          <mxGeometry x="750" y="770" width="60" height="30" as="geometry" />
        </mxCell>
        <mxCell id="gQ4YZ5-QERsagssPoT6o-98" value="1.*" style="text;html=1;align=center;verticalAlign=middle;whiteSpace=wrap;rounded=0;" vertex="1" parent="1">
          <mxGeometry x="850" y="740" width="60" height="30" as="geometry" />
        </mxCell>
        <mxCell id="gQ4YZ5-QERsagssPoT6o-99" value="1.*" style="text;html=1;align=center;verticalAlign=middle;whiteSpace=wrap;rounded=0;" vertex="1" parent="1">
          <mxGeometry x="655" y="595" width="60" height="30" as="geometry" />
        </mxCell>
        <mxCell id="gQ4YZ5-QERsagssPoT6o-100" value="1.*" style="text;html=1;align=center;verticalAlign=middle;whiteSpace=wrap;rounded=0;" vertex="1" parent="1">
          <mxGeometry x="760" y="670" width="60" height="30" as="geometry" />
        </mxCell>
        <mxCell id="gQ4YZ5-QERsagssPoT6o-101" value="1.*" style="text;html=1;align=center;verticalAlign=middle;whiteSpace=wrap;rounded=0;" vertex="1" parent="1">
          <mxGeometry x="730" y="490" width="60" height="30" as="geometry" />
        </mxCell>
        <mxCell id="gQ4YZ5-QERsagssPoT6o-102" value="1.*" style="text;html=1;align=center;verticalAlign=middle;whiteSpace=wrap;rounded=0;" vertex="1" parent="1">
          <mxGeometry x="810" y="440" width="60" height="30" as="geometry" />
        </mxCell>
        <mxCell id="gQ4YZ5-QERsagssPoT6o-103" value="1.*" style="text;html=1;align=center;verticalAlign=middle;whiteSpace=wrap;rounded=0;" vertex="1" parent="1">
          <mxGeometry x="590" y="605" width="60" height="30" as="geometry" />
        </mxCell>
        <mxCell id="gQ4YZ5-QERsagssPoT6o-105" value="0.*" style="text;html=1;align=center;verticalAlign=middle;whiteSpace=wrap;rounded=0;" vertex="1" parent="1">
          <mxGeometry x="550" y="667.5" width="60" height="30" as="geometry" />
        </mxCell>
        <mxCell id="gQ4YZ5-QERsagssPoT6o-106" value="1.*" style="text;html=1;align=center;verticalAlign=middle;whiteSpace=wrap;rounded=0;" vertex="1" parent="1">
          <mxGeometry x="735" y="555" width="60" height="30" as="geometry" />
        </mxCell>
        <mxCell id="gQ4YZ5-QERsagssPoT6o-108" value="0.1" style="text;html=1;align=center;verticalAlign=middle;whiteSpace=wrap;rounded=0;" vertex="1" parent="1">
          <mxGeometry x="810" y="517.5" width="60" height="30" as="geometry" />
        </mxCell>
        <mxCell id="gQ4YZ5-QERsagssPoT6o-109" value="1.*" style="text;html=1;align=center;verticalAlign=middle;whiteSpace=wrap;rounded=0;" vertex="1" parent="1">
          <mxGeometry x="1050" y="490" width="60" height="30" as="geometry" />
        </mxCell>
        <mxCell id="gQ4YZ5-QERsagssPoT6o-110" value="1.*" style="text;html=1;align=center;verticalAlign=middle;whiteSpace=wrap;rounded=0;" vertex="1" parent="1">
          <mxGeometry x="1120" y="490" width="60" height="30" as="geometry" />
        </mxCell>
        <mxCell id="gQ4YZ5-QERsagssPoT6o-111" style="edgeStyle=orthogonalEdgeStyle;rounded=0;orthogonalLoop=1;jettySize=auto;html=1;exitX=0.5;exitY=1;exitDx=0;exitDy=0;" edge="1" parent="1" source="gQ4YZ5-QERsagssPoT6o-109" target="gQ4YZ5-QERsagssPoT6o-109">
          <mxGeometry relative="1" as="geometry" />
        </mxCell>
        <mxCell id="gQ4YZ5-QERsagssPoT6o-112" value="1.*" style="text;html=1;align=center;verticalAlign=middle;whiteSpace=wrap;rounded=0;" vertex="1" parent="1">
          <mxGeometry x="1050" y="687.5" width="60" height="30" as="geometry" />
        </mxCell>
        <mxCell id="gQ4YZ5-QERsagssPoT6o-113" value="1.*" style="text;html=1;align=center;verticalAlign=middle;whiteSpace=wrap;rounded=0;" vertex="1" parent="1">
          <mxGeometry x="1120" y="690" width="60" height="30" as="geometry" />
        </mxCell>
        <mxCell id="gQ4YZ5-QERsagssPoT6o-114" value="1.*" style="text;html=1;align=center;verticalAlign=middle;whiteSpace=wrap;rounded=0;" vertex="1" parent="1">
          <mxGeometry x="1310" y="490" width="60" height="30" as="geometry" />
        </mxCell>
        <mxCell id="gQ4YZ5-QERsagssPoT6o-115" value="1.*" style="text;html=1;align=center;verticalAlign=middle;whiteSpace=wrap;rounded=0;" vertex="1" parent="1">
          <mxGeometry x="1360" y="490" width="60" height="30" as="geometry" />
        </mxCell>
        <mxCell id="gQ4YZ5-QERsagssPoT6o-116" value="1.*" style="text;html=1;align=center;verticalAlign=middle;whiteSpace=wrap;rounded=0;" vertex="1" parent="1">
          <mxGeometry x="1310" y="682.5" width="60" height="30" as="geometry" />
        </mxCell>
        <mxCell id="gQ4YZ5-QERsagssPoT6o-117" value="1.*" style="text;html=1;align=center;verticalAlign=middle;whiteSpace=wrap;rounded=0;" vertex="1" parent="1">
          <mxGeometry x="1370" y="682.5" width="60" height="30" as="geometry" />
        </mxCell>
      </root>
    </mxGraphModel>
  </diagram>
</mxfile>
